<svg width="501" height="116" viewBox="0 0 501 116" fill="none" xmlns="http://www.w3.org/2000/svg">
<path d="M21.1988 89.2881V17.7881H61.0988V20.7881H24.7988V51.1881H53.4988V54.1881H24.7988V89.2881H21.1988ZM118.557 86.8881C136.357 86.8881 149.257 72.5881 149.257 53.6881V52.8881C149.257 34.5881 136.457 20.0881 118.357 20.0881C100.157 20.0881 87.3566 34.3881 87.3566 53.1881V53.9881C87.3566 72.5881 100.757 86.8881 118.557 86.8881ZM118.557 89.9881C98.5566 89.9881 83.6566 73.9881 83.6566 53.9881V53.1881C83.6566 32.8881 98.7566 17.0881 118.357 17.0881C138.057 17.0881 152.957 32.7881 152.957 52.8881V53.6881C152.957 73.8881 138.057 89.9881 118.557 89.9881ZM182.449 89.2881V17.7881H200.749C214.749 17.7881 224.649 22.9881 224.649 36.4881V36.8881C224.649 48.7881 216.949 54.2881 205.649 55.4881L228.849 89.2881H224.749L201.749 55.7881H185.949V89.2881H182.449ZM185.949 52.7881H200.849C213.249 52.7881 221.049 48.3881 221.049 36.8881V36.4881C221.049 24.7881 212.849 20.7881 200.849 20.7881H185.949V52.7881ZM256.726 89.2881V17.7881H262.026L289.226 82.6881L316.926 17.7881H322.226V89.2881H318.626V22.0881L289.826 89.2881H288.426L260.126 22.0881V89.2881H256.726ZM350.389 89.2881L376.789 17.7881H381.589L408.189 89.2881H404.589L396.089 66.4881H362.189L353.789 89.2881H350.389ZM379.089 20.6881L363.289 63.4881H394.989L379.089 20.6881ZM429.975 89.2881L455.275 52.0881L432.275 17.7881H436.275L457.575 49.4881L478.775 17.7881H482.575L459.475 52.1881L484.475 89.2881H480.475L457.175 54.7881L433.675 89.2881H429.975Z" fill="#E2E2E2"/>
</svg>
